HIERARCHY
ROOT pelvis
{
  OFFSET 0 100 0
  CHANNELS 6 Xposition Yposition Zposition Zrotation Xrotation Yrotation
  JOINT pelvis_right_femur
  {
    OFFSET -10.78128 -3.44521 -0.5502486
    CHANNELS 3 Zrotation Xrotation Yrotation
    JOINT right_femur_tibia
    {
      OFFSET -0.8047443 -44.0398 -0.1307829
      CHANNELS 3 Zrotation Xrotation Yrotation
      JOINT right_tibia_foot
      {
        OFFSET 3.006224 -47.83518 -5
        CHANNELS 3 Zrotation Xrotation Yrotation
        End Site
        {
          OFFSET 0 -5 15
        }
      }
    }
  }
  JOINT pelvis_left_femur
  {
    OFFSET 10.78128 -3.44521 -0.5502486
    CHANNELS 3 Zrotation Xrotation Yrotation
    JOINT left_femur_tibia
    {
      OFFSET 0.8047443 -44.0398 -0.1307829
      CHANNELS 3 Zrotation Xrotation Yrotation
      JOINT left_tibia_foot
      {
        OFFSET -4.370144 -48.10324 -4.275266
        CHANNELS 3 Zrotation Xrotation Yrotation
        End Site
        {
          OFFSET 0 -5 15
        }
      }
    }
  }
  JOINT pelvis_spine1
  {
    OFFSET 0 6.468898 -3.129235
    CHANNELS 3 Zrotation Xrotation Yrotation
    JOINT spine1
    {
      OFFSET 0 23.15396 4.99043
      CHANNELS 3 Zrotation Xrotation Yrotation
      JOINT spine2
      {
        OFFSET 0 20.79997 -5.064912
        CHANNELS 3 Zrotation Xrotation Yrotation
        JOINT neck
        {
          OFFSET 0 14.38658 9.616178
          CHANNELS 3 Zrotation Xrotation Yrotation
          End Site
          {
            OFFSET 0 20 0
          }
        }
      }
      JOINT right_manubrium
      {
        OFFSET -5.722621 16.35077 3.967754
        CHANNELS 3 Zrotation Xrotation Yrotation
        JOINT right_clavicle
        {
          OFFSET -13.16364 1.694482 -4.693211
          CHANNELS 3 Zrotation Xrotation Yrotation
          JOINT right_humerus
          {
            OFFSET -28.5034 -0.3100689 -2.792744
            CHANNELS 3 Zrotation Xrotation Yrotation
            JOINT right_radius
            {
              OFFSET -25.15693 0.02248979 -1.271978
              CHANNELS 3 Zrotation Xrotation Yrotation
              End Site
              {
                OFFSET -15 0 0
              }
            }
          }
        }
      }
      JOINT left_manubrium
      {
        OFFSET 5.722621 16.35077 3.967754
        CHANNELS 3 Zrotation Xrotation Yrotation
        JOINT left_clavicle
        {
          OFFSET 13.16364 1.694482 -4.693211
          CHANNELS 3 Zrotation Xrotation Yrotation
          JOINT left_humerus
          {
            OFFSET 29.39168 -1.063119 -2.237045
            CHANNELS 3 Zrotation Xrotation Yrotation
            JOINT left_radius
            {
              OFFSET 24.59957 -0.9528479 0.9047498
              CHANNELS 3 Zrotation Xrotation Yrotation
              End Site
              {
                OFFSET 15 -0 -0
              }
            }
          }
        }
      }
    }
  }
}
MOTION
Frames: 15
Frame Time: 0.0416666666667
0 103.5113 0 0.8228868 0.05246 0.04096725 3.845996 -18.56026 9.24084 -0 37.11407 -0 -5.492601 -14.14576 -2.416232 -7.48258 9.38898 -22.28783 -0 4.250875 -0 12.80581 -15.49614 27.98781 -3.630259 -3.839762 5.216738 2.541429 10.45694 -7.691834 1.327467 21.59271 7.023983 3.010537 -25.49971 9.985654 6.015572 -20.66809 11.92244 85.98247 35.87333 -18.59823 -0 0 16.05961 -7.350663 8.657807 4.810553 6.44326 -20.38851 -1.054536 -92.43514 22.36383 20.93651 0 0 -16.54274 14.46659 15.2649 -2.235278
0.3957706 103.337 1.893545 0.4898065 0.3213425 0.09417018 4.35389 -20.60851 8.814414 -0 35.47678 -0 -5.728593 -13.20628 -2.284133 -7.141303 9.946638 -21.8772 -0 4.637661 -0 11.97637 -16.29251 27.14542 -3.455847 -3.412029 4.880846 2.711487 10.27395 -7.781725 1.292016 21.50167 7.144819 3.126028 -25.72828 9.963025 5.947033 -20.3414 11.94837 86.09027 35.63963 -18.8696 -0 0 15.55914 -7.548257 8.63835 4.914177 6.486982 -20.49459 -1.233235 -92.32613 22.70769 20.61077 0 0 -16.96422 13.88977 15.36767 -1.607636
0.7468594 103.2054 3.764734 0.2411052 1.645793 0.1651879 5.387088 -23.06277 9.989396 -0 33.72955 -0 -5.050673 -15.44024 -2.731949 -7.085604 10.4423 -22.5074 -0 5.189332 -0 11.96644 -16.9765 27.45946 -3.616298 -3.209145 4.91849 3.17141 9.463832 -8.031886 1.437397 21.13006 7.076891 3.095278 -26.11433 10.20175 6.663386 -19.65931 11.70149 85.14236 37.59892 -18.8017 -0 0 15.9881 -5.791381 8.671729 4.018114 6.652043 -19.75841 -0.3633892 -92.5727 23.50708 20.37695 0 0 -16.63125 13.43561 14.8454 -1.188881
1.06983 103.0005 5.905421 -0.208028 2.365799 0.2826889 6.318389 -25.86906 9.892565 -0 31.08214 -0 -5.135701 -14.32413 -2.570696 -6.732874 10.9196 -21.848 -0 6.224218 -0 11.54297 -17.66208 26.70164 -3.410413 -2.802931 4.700068 3.456004 9.294577 -8.199343 1.473153 20.78487 7.150695 3.190799 -26.59182 10.28199 6.647726 -19.27669 11.69067 85.16983 37.71543 -19.06098 -0 0 15.4736 -5.752274 8.816262 4.008681 6.860054 -19.92058 -0.2456944 -92.19311 23.01295 19.73812 0 0 -17.14734 13.85052 14.39326 -1.696707
1.373464 102.6882 8.471173 -0.6350911 2.819732 0.445289 7.021655 -28.50884 9.149952 -0 27.76179 -0 -5.433308 -11.96857 -2.130898 -6.355308 11.38051 -20.57461 -0 7.501127 -0 11.03813 -18.26345 25.51699 -3.086686 -2.455306 4.466406 3.631105 9.436812 -8.353269 1.442202 20.45479 7.271405 3.313149 -27.02018 10.26555 6.27974 -19.05948 11.77216 85.71694 37.02777 -19.61478 -0 0 14.51921 -6.523945 9.049768 4.370153 7.129414 -20.57428 -0.4262931 -91.40879 21.81082 18.78361 0 0 -18.3614 14.76066 13.87545 -2.781734
1.661205 102.2057 11.65928 -0.9771301 2.964393 0.6621453 7.329092 -30.86661 7.485012 -0 23.29711 -0 -5.920667 -8.421631 -1.38935 -5.99385 11.94268 -18.56952 -0 9.143515 -0 10.30468 -18.82896 23.771 -2.647718 -2.236223 4.231576 3.673235 9.885637 -8.514124 1.318908 20.17349 7.43849 3.446416 -27.29788 10.10301 5.469384 -18.98618 11.9295 86.91539 35.37802 -20.63041 -0 0 12.98607 -8.262228 9.362849 5.126603 7.479068 -21.82807 -0.9523269 -90.13863 19.91161 17.36853 0 0 -20.63834 16.03127 13.2851 -4.347401
1.926822 101.5022 15.68665 -1.126047 2.669238 0.9463042 7.018028 -32.43229 4.688974 -0 17.62188 -0 -6.594645 -3.964054 -0.4248652 -5.729466 12.75718 -15.83838 -0 11.37397 -0 9.124831 -19.31239 21.4033 -2.115354 -2.264321 4.009875 3.530964 10.6007 -8.684127 1.090856 20.03201 7.622335 3.55059 -27.23483 9.736322 4.127739 -19.02926 12.10411 88.85444 32.63185 -22.2007 -0 0 10.79562 -11.03571 9.687643 6.252988 7.852315 -23.70324 -1.866463 -88.40763 17.55893 15.46039 0 0 -24.23997 17.2504 12.71731 -5.976938
2.151781 100.5962 20.74981 -0.9996961 1.759964 1.314431 6.071483 -32.49753 0.8787469 -0 11.30314 -0 -7.507706 0.9021148 0.5516606 -5.633287 13.9758 -12.55256 -0 14.61867 -0 7.270223 -19.51892 18.46956 -1.495491 -2.644499 3.786099 3.151792 11.49596 -8.848061 0.7814018 20.15542 7.75538 3.567537 -26.61907 9.132732 2.207434 -19.13367 12.20121 91.51151 28.76045 -24.24825 -0 0 7.988983 -14.6981 9.907096 7.624392 8.089064 -26.06015 -3.192388 -86.35612 15.23768 13.1714 0 0 -29.09767 17.81386 12.40067 -6.994643
2.306069 99.67273 26.89872 -0.6667083 0.2081513 1.769988 5.058859 -30.56318 -2.897711 -0 6.129421 -0 -8.720684 5.120808 1.104679 -5.670954 15.54366 -9.314063 -0 19.51419 -0 4.742869 -19.03575 15.39108 -0.7727334 -3.337566 3.510147 2.562152 12.34914 -8.964659 0.5099441 20.63013 7.705849 3.426131 -25.39196 8.383089 -0.083192 -19.16583 12.09903 94.50554 24.30395 -26.32533 -0 0 5.024989 -18.42581 9.910033 8.844215 7.911222 -28.3113 -4.779952 -84.38782 13.79741 10.96686 0 0 -34.12007 17.06308 12.62269 -6.554036
2.358922 99.12876 33.842 -0.4919681 -1.565215 2.235341 5.001813 -27.15534 -4.685905 -0 4.869377 -0 -10.22427 7.104598 0.7091172 -5.535615 16.79302 -7.241073 -0 26.60076 -0 2.068729 -17.37244 13.02729 0.08003935 -3.976822 3.14298 1.975726 12.78974 -8.970184 0.499904 21.34441 7.319951 3.084783 -23.95698 7.772782 -2.045424 -18.93407 11.7567 96.92092 20.78761 -27.61357 -0 0 2.996784 -20.52942 9.74174 9.259859 7.085613 -29.32059 -6.13197 -83.28836 14.18491 9.851107 0 0 -36.73514 14.79374 13.419 -4.186192
2.305231 99.36141 40.91886 -0.9160022 -2.752229 2.509229 6.28762 -23.76205 -3.315669 -0 8.660976 -0 -11.88269 5.75599 -0.6447242 -4.823145 16.3588 -7.220719 -0 35.56627 -0 0.06046818 -14.45535 12.00533 0.9980578 -3.987001 2.790706 1.72438 12.56684 -8.808498 0.8704974 21.95547 6.612881 2.622231 -23.12676 7.585713 -2.75875 -18.39262 11.35751 97.67833 19.96774 -27.44149 -0 0 3.000084 -19.65019 9.607528 8.538756 5.746996 -28.22164 -6.606875 -83.91486 16.48521 10.90671 0 0 -34.51184 11.81659 14.36311 -0.6158878
2.186402 100.4043 47.52237 -1.736323 -3.101418 2.446509 7.958088 -20.91169 -0.2372622 -0 14.33686 -0 -13.40192 1.907035 -2.129371 -3.779795 13.34474 -8.592633 -0 45.0694 -0 -0.9750784 -10.9564 11.96127 1.679842 -3.237625 2.733686 1.864086 11.94618 -8.46653 1.401562 22.3015 5.86205 2.240305 -23.15742 7.717169 -2.139226 -17.78525 11.16597 96.67797 21.7188 -25.99114 -0 0 4.646646 -16.78771 9.615918 7.283985 4.3893 -25.75517 -6.198995 -86.07338 19.30795 13.78807 0 0 -28.58412 9.486059 15.00521 2.481446
2.041299 101.9353 53.51221 -2.154813 -3.455882 2.069521 8.666348 -17.44251 1.922574 -0 17.57588 -0 -14.46442 -2.255795 -3.060961 -3.083783 8.445994 -9.692557 -0 53.7294 -0 -1.312962 -7.811896 12.33382 1.781088 -2.241025 3.132835 2.033439 11.49677 -7.96417 1.825631 22.68229 5.241434 2.015928 -23.22447 7.781152 -1.243177 -17.39634 11.18826 95.10283 23.8732 -24.09537 -0 0 6.329873 -14.49882 9.742914 6.430314 3.417477 -23.61653 -5.627845 -88.21864 21.23378 16.52824 0 0 -22.8301 8.319035 15.34444 4.162777
1.851583 103.5818 59.01637 -1.856137 -4.509522 1.480223 8.228572 -12.49502 2.379362 -0 17.45551 -0 -15.00342 -5.372391 -3.517338 -2.757482 2.689724 -9.748477 -0 60.11721 -0 -1.236082 -5.544257 13.13236 1.331898 -1.428082 3.858625 1.929734 11.47513 -7.324644 2.122719 23.29246 4.662089 1.8368 -22.66211 7.586744 -0.9446796 -17.4335 11.28267 93.86497 24.87007 -22.16077 -0 0 7.480408 -14.00747 9.973978 6.3363 2.907078 -22.47977 -5.376642 -89.44236 22.06838 18.14886 0 0 -19.1033 7.843755 15.58731 4.795246
1.601569 105.0484 64.14457 -1.19725 -5.911808 0.8421962 7.385881 -6.549774 1.895629 -0 15.30094 -0 -15.09052 -7.489672 -3.671805 -2.335271 -3.580136 -8.971897 -0 62.34412 -0 -0.8872105 -4.19874 14.28922 0.660289 -0.8684734 4.684887 1.581655 11.75745 -6.619373 2.286573 23.87248 4.104348 1.63353 -21.72735 7.185524 -1.194596 -18.08877 11.42497 92.84336 24.86978 -20.00313 -0 0 8.796777 -14.90243 10.36619 6.961219 2.746956 -21.98945 -5.38691 -90.14712 22.13625 19.43753 0 0 -16.8368 7.497638 15.78347 5.094363
